<svg width="178" height="325" viewBox="0 0 178 325" fill="none" xmlns="http://www.w3.org/2000/svg">
<path d="M15.2461 84.3589C15.2461 75.1752 49.6657 -1.20916 94.3596 0.147743C156.362 2.03018 172.264 98.1404 169.425 107.601C167.165 115.134 156.274 117.874 108.524 116.539C36.8062 114.533 15.2461 92.5836 15.2461 84.3589Z" fill="url(#paint0_linear)"/>
<path fill-rule="evenodd" clip-rule="evenodd" d="M98.7325 101.392C98.7325 101.392 89.294 101.671 85.2715 99.4736L98.231 107.61L98.7325 101.392Z" fill="#CF3E83"/>
<path d="M97.0316 38.8803C107.911 44.3741 125.043 54.4484 133.756 67.0169C132.231 77.8678 128.504 92.4195 119.766 98.2302C114.956 101.427 106.197 101.821 98.7305 101.391L97.0225 122.587L73.388 114.755C73.388 114.755 75.731 89.9165 76.7456 80.9313C71.8479 76.4862 62.7751 73.6979 62.7598 66.1506C62.7598 63.5448 64.2853 59.0194 69.9209 59.0121C77.4821 59.0048 76.4098 68.063 76.4098 68.063C84.0528 71.0392 91.8591 48.3707 97.0316 38.8803V38.8803Z" fill="white"/>
<path opacity="0.398182" fill-rule="evenodd" clip-rule="evenodd" d="M98.7169 101.391C98.7169 101.391 89.2784 101.67 85.2559 99.4732L98.2154 107.61L98.7169 101.391Z" fill="#66C485"/>
<path fill-rule="evenodd" clip-rule="evenodd" d="M60.5007 229.825L55.457 229.752C55.457 229.752 55.4643 229.672 55.4709 229.504C57.2081 229.628 58.8876 229.73 60.5007 229.825Z" fill="#C83820"/>
<path d="M163.272 284.481L146.622 286.568L119.805 244.627L118.827 230.687L77.9743 230.081L60.5368 229.825H60.5003C58.8872 229.73 57.2077 229.628 55.4712 229.504C33.5082 227.971 3.07825 223.701 0.990705 211.876C-2.79753 190.461 25.8587 148.9 29.2455 144.083C29.4572 143.784 29.566 143.623 29.566 143.623C34.3688 136.762 39.2015 131.426 43.7123 128.587C52.4859 123.061 60.712 121.849 68.5293 121.872L70.6234 106.697L102.514 111.097L100.777 123.711C110.141 124.609 116.513 126.44 122.476 131.914C141.623 149.491 143.031 215.322 143.031 215.322L163.272 284.481Z" fill="#66C485"/>
<path fill-rule="evenodd" clip-rule="evenodd" d="M77.9747 230.081V230.373C77.9747 230.373 70.661 230.387 60.5371 229.825L77.9747 230.081Z" fill="#C83820"/>
<path opacity="0.201149" d="M118.24 230.517C120.582 200.779 136.789 194.491 125.111 161.139" stroke="#004E19" stroke-width="3"/>
<path fill-rule="evenodd" clip-rule="evenodd" d="M145.815 267.308L84.9132 260.289C82.9183 260.058 81.6052 258.097 82.1519 256.166L106.216 171.148C106.651 169.611 108.135 168.617 109.722 168.799L170.624 175.819C172.618 176.049 173.932 178.01 173.385 179.942L149.322 264.959C148.887 266.496 147.401 267.491 145.815 267.308Z" fill="#006D24"/>
<path d="M91.7321 235.537C91.848 235.568 91.9652 235.6 92.0838 235.633C96.3151 236.788 100.64 237.486 106.655 236.694C110.524 236.188 113.85 235.526 113.813 234.909C113.707 233.349 111.829 232.999 111.829 232.999L108.216 233.174L104.74 232.968C104.74 232.968 120.709 229.948 120.709 229.48C120.659 227.832 118.038 227.165 118.038 227.165C118.038 227.165 123.529 226.291 123.466 225.417C123.317 223.196 120.865 223.027 120.865 223.027C120.865 223.027 121.545 222.441 121.477 221.898C121.208 219.707 117.301 219.345 115.442 219.077C115.442 219.077 109.114 218.99 107.229 218.522C102.273 217.284 99.323 216.179 97.4725 215.256L109.839 171.565C110.274 170.029 111.759 169.035 113.345 169.217L174.247 176.237C176.241 176.467 177.555 178.428 177.008 180.359L152.945 265.377C152.51 266.914 151.025 267.908 149.438 267.726L88.5362 260.706C86.542 260.476 85.2282 258.515 85.7749 256.584L91.7321 235.537Z" fill="#B3E1C2"/>
<path fill-rule="evenodd" clip-rule="evenodd" d="M120.708 229.48C120.658 227.832 118.037 227.164 118.037 227.164C118.037 227.164 123.528 226.291 123.466 225.417C123.316 223.196 120.864 223.027 120.864 223.027C120.864 223.027 121.545 222.44 121.476 221.897C121.227 219.869 117.858 219.408 115.884 219.139C115.727 219.117 115.578 219.097 115.441 219.077C115.441 219.077 109.113 218.99 107.229 218.522C97.8305 216.175 95.6466 214.303 94.4926 213.249C94.4572 213.217 94.4231 213.185 94.3899 213.155C94.2943 213.067 94.2062 212.986 94.1174 212.912C94.1823 212.842 94.2559 212.725 94.3329 212.602C94.4412 212.429 94.5561 212.246 94.6619 212.17L96.2677 206.285C95.0919 206.412 93.9425 206.452 92.8039 206.491C91.2052 206.546 89.6277 206.601 88.0278 206.896C83.6651 207.701 81.0819 208.712 81.0819 208.712L75.5156 210.615L71.4785 225.554C73.0069 226.915 76.6696 229.598 79.1543 230.952C83.9511 233.565 86.0638 234.096 89.306 234.912C89.8508 235.049 90.4274 235.194 91.054 235.358C91.125 235.377 91.1966 235.396 91.2688 235.415C91.5326 235.484 91.8041 235.554 92.0832 235.633C96.3144 236.788 100.639 237.486 106.654 236.693C110.524 236.188 113.85 235.526 113.813 234.909C113.706 233.349 111.828 232.999 111.828 232.999L108.215 233.174L104.739 232.968C104.739 232.968 120.708 229.948 120.708 229.48ZM172.149 295.955C171.47 294.621 166.809 289.022 162.981 284.517L147.045 286.515C145.22 297.278 152.802 312.66 152.802 312.66C152.802 312.66 148.858 310.254 148.074 312.357C147.724 313.295 146.933 320.774 161.706 321.278C163.275 321.332 167.048 318.141 167.048 318.141C167.048 318.141 164.297 323.394 168.509 324.426C168.509 324.426 175.299 314.254 175.402 311.991C175.506 309.727 173.327 298.269 172.149 295.955Z" fill="white"/>
<path opacity="0.148065" d="M155.82 292.131C155.82 292.131 157.893 299.962 165.008 302.402C167.496 303.255 166.875 313.328 172.972 312.124" stroke="black" stroke-width="2"/>
<path fill-rule="evenodd" clip-rule="evenodd" d="M116.028 177.138C115.548 178.644 114.525 179.664 113.742 179.415C112.959 179.166 112.713 177.742 113.192 176.235C113.672 174.728 114.695 173.708 115.478 173.957C116.262 174.207 116.508 175.63 116.028 177.138Z" fill="#006D24"/>
<path opacity="0.200498" d="M54.6825 167.036L39.3105 192.489L77.5308 207.612" stroke="#004E19" stroke-width="3"/>
<defs>
<linearGradient id="paint0_linear" x1="15.3054" y1="58.497" x2="169.796" y2="58.497" gradientUnits="userSpaceOnUse">
<stop offset="1.68566e-05" stop-color="#4DBA71"/>
<stop offset="0.9989" stop-color="#007D29"/>
</linearGradient>
</defs>
</svg>
