<svg width="258" height="366" viewBox="0 0 258 366" fill="none" xmlns="http://www.w3.org/2000/svg">
<path fill-rule="evenodd" clip-rule="evenodd" d="M81.5345 120.402C83.3918 123.844 91.5366 136.567 110.841 137.771C129.487 138.924 128.104 128.455 127.131 124.954C126.695 124.828 126.258 124.699 125.819 124.57C121.718 123.367 117.354 122.086 111.378 121.429C95.0631 119.637 93.7831 119.505 81.5345 120.402ZM229.321 175.906C220.447 194.383 189.298 255.038 167.091 245.363C150.464 238.119 130.56 178.064 130.56 178.064L162.915 157.644L177.453 198.914L207.139 164.714C206.131 157.937 205.323 149.078 207.333 145.955C210.754 140.639 228.063 124.262 228.063 124.262L231.215 152.011L231.765 149.671C231.765 149.541 231.794 149.4 231.857 149.248L231.869 149.219L231.875 149.204L233.149 143.789C232.615 143.503 232.396 143.095 232.627 142.53C232.815 142.071 233.224 141.569 233.796 141.041L238.147 122.554C238.147 122.554 239.574 123.227 241.668 124.236C245.034 123.5 257.226 132.289 257.411 132.423L257.414 132.425C259.896 134.125 253.992 162.229 249.196 167.45C245.784 171.164 235.167 174.366 229.321 175.906ZM31.1042 301.225L33.0861 305.215C33.0861 305.215 34.8799 308.475 36.7581 314.165C37.4521 316.268 37.783 318.07 38.1295 319.956C38.7205 323.174 39.3571 326.639 41.9175 332.273C46.5286 342.417 38.2809 338.234 35.3237 333.806C34.3519 332.351 33.8356 330.68 33.3403 329.077C32.6592 326.873 32.0176 324.796 30.2849 323.584C30.1982 323.731 30.1019 323.883 29.9974 324.048C28.8936 325.792 26.8802 328.973 25.7124 342.344C25.4832 344.97 26.6056 353.485 26.6056 353.485C26.6074 353.675 26.6108 353.88 26.6144 354.098L26.6144 354.098C26.6588 356.804 26.7346 361.418 24.1992 362.169C23.5206 362.371 22.637 361.575 22.637 361.575C22.637 361.575 22.9023 364.905 20.1035 365.568C19.0028 365.828 16.8166 358.639 16.8166 358.639C16.8166 358.639 16.4838 362.29 14.3933 362.696C13.8023 362.81 6.82498 341.982 6.82498 341.982L7.24468 346.686L8.17092 351.504C8.17092 351.504 8.09615 354.098 6.13191 354.557C5.352 354.739 3.85491 350.413 2.45188 345.324C0.269751 337.405 0.313973 331.455 0.95639 325.537C1.11196 324.102 1.22242 322.858 1.32386 321.715C1.72782 317.166 1.98899 314.224 4.38798 307.215C4.74691 306.166 5.22867 304.962 5.76671 303.724C4.11989 288.648 -0.520753 244.52 0.0480004 230.973C0.737051 214.541 17.1537 178.064 17.1537 178.064L50.483 197.824L32.1126 233.32L31.1042 301.225Z" fill="white"/>
<path fill-rule="evenodd" clip-rule="evenodd" d="M49.4773 270.853H156.405L160.323 200.86L179.09 189.26L165.941 157.203L165.826 157.227C165.278 156.062 164.677 154.852 164.019 153.597C155.859 138.008 141.9 129.218 127.13 124.954C126.893 124.885 126.796 124.836 126.784 124.852C126.754 124.892 127.268 125.347 127.414 126.949C127.619 129.184 126.954 132.217 126.254 133.139C124.603 135.313 122.109 136.547 121.105 136.837C120.102 137.128 119.307 137.297 118.419 137.484C117.797 137.615 114.259 137.893 113.648 137.859C108.613 137.581 106.145 137.333 102.975 136.535C101.852 136.252 100.691 135.93 99.3141 135.315C99.0559 135.2 98.7731 135.077 98.4699 134.945C96.9818 134.296 94.9999 133.433 92.9869 132.24C90.8587 130.979 88.6894 129.315 87.1191 127.616C86.9674 127.452 86.8197 127.292 86.6761 127.137C85.0272 125.356 83.9024 124.141 83.1232 122.922C82.5959 122.097 82.3968 121.823 82.28 121.662C82.2092 121.565 82.1686 121.509 82.1033 121.397C81.9305 121.101 81.7816 120.84 81.7391 120.665C81.6933 120.476 81.8578 120.396 81.851 120.377C81.8467 120.365 81.7736 120.377 81.5341 120.402C74.0084 121.191 65.9197 123.251 57.0995 127.616C29.8189 141.111 13.875 175.017 13.875 175.017L47.6843 201.828L49.4773 270.853Z" fill="#66C485"/>
<path opacity="0.200521" d="M48 201.826L56.52 208.13L77 182.13" stroke="#004E19" stroke-width="3"/>
<path d="M243.25 157.342L241.782 165.13H218L229.218 103.13H253C252.384 106.537 250.932 114.561 248.644 127.204L243.968 124.861L242.511 124.424L241.365 124.494L240.868 124.861V126.367L245.951 134.27L242.063 136.102L236.079 139.495L234.35 140.789L233.681 141.459L233.134 141.989L232.785 142.444L232.576 142.851L232.486 143.379L232.576 143.613L232.68 143.792L232.831 143.955L234.792 144.704L239.266 143.379H243.688L237.786 144.704L233.897 147.219L232.576 148.565L231.829 149.555V150.46L233.134 151.095L241.365 150.073L238.639 151.676L236.833 152.887L235.177 153.81L233.897 155.596V156.477L234.35 156.995L235.5 157.656H237.253H240.785L243.25 157.342Z" fill="#B3E1C2"/>
<path fill-rule="evenodd" clip-rule="evenodd" d="M217.896 165.13H214L225.105 103.13H229L217.896 165.13Z" fill="#006D24"/>
<path fill-rule="evenodd" clip-rule="evenodd" d="M232.903 109.984C232.612 111.907 231.747 113.308 230.971 113.112C230.197 112.916 229.805 111.199 230.097 109.276C230.388 107.353 231.253 105.953 232.029 106.148C232.804 106.344 233.195 108.062 232.903 109.984Z" fill="#006D24"/>
<path d="M123.452 126.339L122.777 101.173C122.777 101.173 145.703 100.55 150.715 93.5899C155.726 86.6299 164.556 59.0157 155.726 36.2033L155.547 35.315L95.7899 27.7655L92.0722 64.3496C90.0593 57.9383 82.4608 49.4479 78.1178 58.6299C68.707 78.526 93.7096 93.5899 93.7096 93.5899L90.2935 126.642" fill="white"/>
<path opacity="0.400274" fill-rule="evenodd" clip-rule="evenodd" d="M122.778 101.173L103.684 96.751L122.686 110.614L122.778 101.173Z" fill="#80CE99"/>
<path fill-rule="evenodd" clip-rule="evenodd" d="M92.4322 64.7393C87.9701 59.7432 83.1137 57.6264 80.168 56.7472L80.7299 44.1386L108.8 38.8525C106.866 52.9188 99.3526 60.5932 92.4322 64.7393Z" fill="#009C33"/>
<path fill-rule="evenodd" clip-rule="evenodd" d="M157.38 41.1222C154.852 38.524 138.369 37.7192 118.555 39.3671C113.946 39.7503 109.528 40.2331 105.443 40.7926C91.9366 42.6244 81.9992 45.2303 80.3816 47.522C78.5874 18.8877 94.8261 1.8344 116.087 0.247861C130.035 -0.7945 142.685 5.08411 150.257 17.3319C154.131 23.609 156.681 31.5647 157.38 41.1222Z" fill="#66C485"/>
<path fill-rule="evenodd" clip-rule="evenodd" d="M157.702 41.6892H157.695C157.668 41.49 157.56 41.2983 157.383 41.1221C154.854 38.5238 138.371 37.7191 118.558 39.3669C113.948 39.7501 109.531 40.233 105.445 40.7925C111.257 34.8296 121.888 25.4023 134.429 21.1716C139.792 19.3628 145.23 18.0445 150.259 17.3317C162.467 15.5842 172.262 17.3777 172.752 24.222C173.383 33.1281 159.81 40.5856 157.702 41.6892Z" fill="#005E1F"/>
</svg>
