<svg width="242" height="278" viewBox="0 0 242 278" fill="none" xmlns="http://www.w3.org/2000/svg">
<path d="M190.464 246.446C191.715 245.195 205.476 231.434 207.978 217.673C210.48 203.912 211.731 196.406 210.48 196.406C209.229 196.406 181.707 197.657 181.707 197.657L176.703 238.94L181.707 258.956L190.464 246.446Z" fill="white"/>
<path d="M139.173 1.251C139.173 1.251 164.193 6.25498 171.699 23.7689C179.205 41.2828 174.201 47.5378 177.954 55.0438C181.707 62.5498 192.966 61.2988 195.468 68.8047C197.97 76.3107 195.468 96.3266 199.221 100.08C202.974 103.833 216.735 115.092 215.484 125.1C214.233 135.107 204.225 152.621 191.715 153.872C179.205 155.123 71.6191 127.601 71.6191 127.601C71.6191 127.601 77.8741 110.088 77.8741 102.582C77.8741 95.0756 69.1172 88.8206 74.1211 78.8127C79.1251 68.8047 87.8821 63.8007 87.8821 55.0438C87.8821 46.2868 79.1251 40.0318 84.1291 30.0239C89.1331 20.0159 94.1371 21.2669 97.89 17.5139C101.643 13.7609 112.902 0 125.412 0C136.671 0 139.173 1.251 139.173 1.251Z" fill="url(#paint0_linear)"/>
<path d="M86.6317 108.211C86.6317 108.211 72.8707 111.339 61.6118 133.857C50.3528 156.375 34.0899 187.65 34.0899 187.65C34.0899 187.65 31.5879 195.156 31.5879 200.16C31.5879 200.16 50.3528 200.16 52.8548 202.662C55.3568 205.164 84.1297 155.124 84.1297 155.124L86.6317 108.211Z" fill="#4DBA71"/>
<path d="M156.688 112.59C156.688 112.59 170.448 111.339 180.456 132.606C190.464 153.873 202.974 173.889 205.476 178.893C207.978 183.897 212.982 198.908 212.982 198.908L189.213 203.912L161.691 160.128L156.688 112.59Z" fill="#4DBA71"/>
<path d="M32.8372 200.159C32.8372 200.159 26.5822 206.414 39.0922 227.681C51.6021 248.948 60.3591 256.454 60.3591 256.454L66.614 237.689L53.8539 196.531L32.8372 200.159Z" fill="white"/>
<path d="M107.9 106.335C107.9 106.335 84.7569 104.458 81.0039 111.964C77.2509 119.47 71.6214 157.626 75.3744 165.131C79.1274 172.637 79.1274 187.649 79.1274 187.649L161.068 188.275C161.068 188.275 161.693 180.143 166.072 148.243C168.448 130.854 164.07 120.721 163.57 118.219C162.319 111.964 158.566 110.713 152.311 108.211C146.056 105.709 107.9 106.335 107.9 106.335Z" fill="#66C485"/>
<path d="M110.403 86.3187C110.403 86.3187 111.654 95.0757 110.403 98.8287C109.152 102.582 101.646 111.339 104.148 117.594C106.65 123.849 111.654 130.104 121.662 130.104C131.67 130.104 137.925 127.602 140.427 122.598C142.929 117.594 144.179 111.339 139.176 106.335C134.172 101.331 132.921 102.582 132.921 96.3267C132.921 90.0717 132.921 85.0677 132.921 85.0677L110.403 86.3187Z" fill="white"/>
<path d="M53.4805 182.02L55.9825 264.586V277.096H184.835V265.837L191.09 182.02H53.4805Z" fill="#B3E1C2"/>
<path d="M110.65 88.3206C110.65 88.3206 110.65 97.3277 120.658 101.081C120.658 101.081 133.293 103.833 133.168 98.954C132.918 93.0743 133.544 88.5708 133.544 88.5708L110.65 88.3206Z" fill="#CCEBD6"/>
<path d="M107.899 28.7729C107.899 28.7729 91.6359 40.0319 96.6399 62.5498C101.644 85.0677 111.652 92.5737 117.907 93.8247C124.162 95.0757 130.417 95.0757 135.421 91.3227C140.425 87.5697 149.182 76.3108 149.182 67.5538C149.182 58.7968 151.684 56.2948 141.676 51.2909C131.668 46.2869 112.903 42.5339 107.899 28.7729Z" fill="white"/>
<defs>
<linearGradient id="paint0_linear" x1="71.6744" y1="76.9568" x2="215.619" y2="76.9568" gradientUnits="userSpaceOnUse">
<stop offset="1.68566e-05" stop-color="#4DBA71"/>
<stop offset="0.9989" stop-color="#007D29"/>
</linearGradient>
</defs>
</svg>
